<mxfile host="65bd71144e">
    <diagram id="a0k8rTssXGEOeGLlF7yg" name="Page-1">
        <mxGraphModel dx="1063" dy="935" grid="1" gridSize="10" guides="1" tooltips="1" connect="1" arrows="1" fold="1" page="1" pageScale="1" pageWidth="850" pageHeight="1100" math="0" shadow="0">
            <root>
                <mxCell id="0"/>
                <mxCell id="1" parent="0"/>
                <mxCell id="2" value="Project XYZ" style="rounded=0;whiteSpace=wrap;html=1;labelPosition=left;verticalLabelPosition=top;align=right;verticalAlign=bottom;" vertex="1" parent="1">
                    <mxGeometry x="135" y="140" width="925" height="380" as="geometry"/>
                </mxCell>
                <mxCell id="8" value="Stack" style="rounded=1;whiteSpace=wrap;html=1;labelPosition=left;verticalLabelPosition=top;align=right;verticalAlign=bottom;" vertex="1" parent="1">
                    <mxGeometry x="190" y="190" width="165" height="300" as="geometry"/>
                </mxCell>
                <mxCell id="3" value="backend" style="rounded=0;whiteSpace=wrap;html=1;" vertex="1" parent="1">
                    <mxGeometry x="210" y="275" width="120" height="60" as="geometry"/>
                </mxCell>
                <mxCell id="4" value="frontend" style="rounded=0;whiteSpace=wrap;html=1;" vertex="1" parent="1">
                    <mxGeometry x="210" y="205" width="120" height="60" as="geometry"/>
                </mxCell>
                <mxCell id="5" value="database" style="rounded=0;whiteSpace=wrap;html=1;" vertex="1" parent="1">
                    <mxGeometry x="210" y="345" width="120" height="60" as="geometry"/>
                </mxCell>
                <mxCell id="15" style="edgeStyle=none;html=1;" edge="1" parent="1" source="6" target="14">
                    <mxGeometry relative="1" as="geometry"/>
                </mxCell>
                <mxCell id="6" value="baseline" style="rounded=0;whiteSpace=wrap;html=1;" vertex="1" parent="1">
                    <mxGeometry x="210" y="415" width="120" height="60" as="geometry"/>
                </mxCell>
                <mxCell id="7" value="a project = # env = # stacks" style="text;html=1;strokeColor=none;fillColor=none;align=center;verticalAlign=middle;whiteSpace=wrap;rounded=0;" vertex="1" parent="1">
                    <mxGeometry x="80" y="560" width="230" height="30" as="geometry"/>
                </mxCell>
                <mxCell id="9" value="ENV -dev" style="rounded=1;whiteSpace=wrap;html=1;labelPosition=left;verticalLabelPosition=top;align=right;verticalAlign=bottom;" vertex="1" parent="1">
                    <mxGeometry x="380" y="190" width="165" height="300" as="geometry"/>
                </mxCell>
                <mxCell id="10" value="tfvars" style="rounded=0;whiteSpace=wrap;html=1;" vertex="1" parent="1">
                    <mxGeometry x="402.5" y="275" width="120" height="60" as="geometry"/>
                </mxCell>
                <mxCell id="11" value="frontend.tfvars" style="rounded=0;whiteSpace=wrap;html=1;" vertex="1" parent="1">
                    <mxGeometry x="402.5" y="205" width="120" height="60" as="geometry"/>
                </mxCell>
                <mxCell id="12" value="tfvars" style="rounded=0;whiteSpace=wrap;html=1;" vertex="1" parent="1">
                    <mxGeometry x="402.5" y="345" width="120" height="60" as="geometry"/>
                </mxCell>
                <mxCell id="16" style="edgeStyle=none;html=1;" edge="1" parent="1" source="13" target="14">
                    <mxGeometry relative="1" as="geometry"/>
                </mxCell>
                <mxCell id="13" value="tfvars" style="rounded=0;whiteSpace=wrap;html=1;" vertex="1" parent="1">
                    <mxGeometry x="402.5" y="415" width="120" height="60" as="geometry"/>
                </mxCell>
                <mxCell id="14" value="module external or internal&amp;nbsp;" style="ellipse;whiteSpace=wrap;html=1;" vertex="1" parent="1">
                    <mxGeometry x="300" y="630" width="120" height="80" as="geometry"/>
                </mxCell>
                <mxCell id="17" value="ENV -prod" style="rounded=1;whiteSpace=wrap;html=1;labelPosition=left;verticalLabelPosition=top;align=right;verticalAlign=bottom;" vertex="1" parent="1">
                    <mxGeometry x="560" y="190" width="165" height="300" as="geometry"/>
                </mxCell>
                <mxCell id="18" value="tfvars" style="rounded=0;whiteSpace=wrap;html=1;" vertex="1" parent="1">
                    <mxGeometry x="582.5" y="345" width="120" height="60" as="geometry"/>
                </mxCell>
                <mxCell id="19" value="ENV -prod - DR" style="rounded=1;whiteSpace=wrap;html=1;labelPosition=left;verticalLabelPosition=top;align=right;verticalAlign=bottom;" vertex="1" parent="1">
                    <mxGeometry x="810" y="190" width="165" height="300" as="geometry"/>
                </mxCell>
                <mxCell id="20" value="tfvars" style="rounded=0;whiteSpace=wrap;html=1;" vertex="1" parent="1">
                    <mxGeometry x="832.5" y="335" width="120" height="60" as="geometry"/>
                </mxCell>
            </root>
        </mxGraphModel>
    </diagram>
</mxfile>